inDegrees=yes
name=ik_coleta2_trike_1hz_mov
DataType=double
version=3
OpenSimVersion=4.4-2022-07-23-0e9fedc
endheader
time	hip_flexion_r	knee_angle_r	hip_flexion_l	knee_angle_l	gearToGround_coord_0
32.53635406494141	95.34961455427108	-67.91988672808689	100.6844350971003	-106.3167359830418	-758.2667096235384
32.54235696792603	94.9735231952596	-67.52962057658218	101.0629404525369	-106.6510671504573	-759.2404037192766
32.54734516143799	94.60085627727882	-67.14601745553533	101.4561584257814	-107.1241929703299	-760.2095817522811
32.55232715606689	94.23105725144376	-66.7684967416357	101.7948201523629	-107.3706616337323	-761.1760688971145
32.55638003349304	93.86438179151737	-66.39732009621977	102.1908532162293	-107.6770772085391	-762.1394434765737
32.56135296821594	93.50018709168997	-66.03183613259007	102.5382792964524	-108.0298782298144	-763.1009438895014
32.56634092330933	93.13870374496952	-65.67225636556121	102.9161809843687	-108.3452383586103	-764.0603169473035
32.57039999961853	92.7800535554469	-65.31885903654809	103.3135648086151	-108.6572848145114	-765.0197971554388
32.5754017829895	92.42373023596173	-64.97102312038315	103.64948630603	-109.0084624537742	-765.9779357879363
32.5833420753479	92.07020927556701	-64.6292982296588	104.0547396721545	-109.282034691426	-766.9356867670072
32.58939695358276	91.7174388128837	-64.29170803562566	104.3976400948465	-109.6437187045258	-767.897280809932
32.5943431854248	91.36681527369832	-63.95964730435048	104.7865359906366	-109.8909003908494	-768.8607371481926
32.5983419418335	91.01960669514985	-63.63462454081537	105.1668244862604	-110.2891429948977	-769.822371330134
32.60336089134216	90.6738890468671	-63.31454475522881	105.722360708253	-110.7656794371417	-770.788010751986
32.61233806610107	90.33127735718355	-63.00109708216828	105.9270572345824	-110.7473458816039	-771.7515437059108
32.62539887428284	89.98679638240512	-62.68984986688759	106.2849404930076	-111.0949485751184	-772.7312804277236
32.63133502006531	89.6423221452433	-62.38269381119876	106.7139698329663	-111.301839391238	-773.7216790361838
32.64534401893616	89.29995136593291	-62.08161544094182	107.0557986871161	-111.6298422012992	-774.7125406865169
32.6533670425415	88.96004618770229	-61.78707417230502	107.484171067214	-111.9823302709432	-775.7073552435139
32.65937614440918	88.61871051140133	-61.49584073270275	107.8396511420327	-112.1066962416722	-776.7195785490264
32.66333293914795	88.2779625246513	-61.20983623431748	108.2416197928463	-112.4398643546596	-777.7414037942475
32.66934394836426	87.94089468431601	-60.93189008648554	108.6314586221353	-112.6055916868875	-778.764956014009
32.67634701728821	87.59652084785895	-60.65321049997397	109.0311396452484	-112.8858816305547	-779.8242646715787
32.68033599853516	87.2546506410616	-60.38206314104566	109.4574381166688	-113.0811472649637	-780.886168113017
32.68636584281921	86.91249734769616	-60.11668807239824	109.8664026047927	-113.3190382025264	-781.9712659692543
32.697350025177	86.56811624204454	-59.85548886695351	110.2932625449409	-113.6512590101711	-783.08149459583
32.70338606834412	86.26050847005443	-59.76616659968573	110.856555882143	-113.842868759092	-784.0795989483512
32.70739197731018	85.95884900816596	-59.73485862181453	111.628500179995	-114.2853322428786	-785.9652956286476
32.7113950252533	85.61883639152843	-59.50393936829369	111.7952278220924	-114.3144961773525	-787.1378246010477
32.71634602546692	85.25840876758063	-59.26845925695946	112.2606694932036	-114.5598081125445	-788.4249910931379
32.72036910057068	84.90376985304232	-59.04681890731187	112.7299285307869	-114.7737501203234	-789.7123195189899
32.72540307044983	84.54529406214088	-58.83368135551644	113.3748783630582	-114.9622422491776	-791.0472352142334
32.73033690452576	84.18241518828314	-58.63021740442389	113.7467584541057	-115.0786090308693	-792.4354216160009
32.73433995246887	83.81406195652869	-58.43758009152153	114.4260597167185	-115.3701034062081	-793.8866195814701
32.73838305473328	83.44091738551219	-58.2583015370171	114.79112108598	-115.4137460112322	-795.405907177289
32.74336099624634	83.06437721291422	-58.09534471036248	115.2798068272762	-115.5523237786858	-796.9955873086753
32.74932813644409	82.68147648753933	-57.95073243803879	115.8062313922667	-115.7661117862754	-798.6787824222457
32.75435590744019	82.29498764952314	-57.82941604012399	116.4320061844655	-115.9724074791944	-800.4565852055251
32.75835800170898	81.90485190739332	-57.73614234079051	116.9583141900008	-115.9758245572831	-802.3447755717324
32.76234412193298	81.51638119067459	-57.67780188959218	117.5306341055572	-115.9530071328307	-804.3379506350129
32.76734495162964	81.13100056423967	-57.66102908605395	118.1287854991511	-115.9663038858859	-806.4509736217115
32.77139902114868	80.75561821881588	-57.69348663562015	118.7681533066987	-115.9068265421289	-808.6706963181056
32.77537512779236	80.39876710486197	-57.7812152619062	119.3092684653735	-115.8929387732791	-810.9720089743299
32.77935004234314	80.06718490081174	-57.92789184330744	119.8692003907284	-115.7735285569425	-813.3321580811098
32.78334617614746	79.76904574524019	-58.13268123040002	120.3995923514172	-115.6251949682107	-815.7037588627799
32.79139399528503	79.50935456643164	-58.3902603199581	120.890842276085	-115.4387476757027	-818.0430167884476
32.79533314704895	79.2893965789451	-58.69285681447202	121.3077872805763	-115.1785123629733	-820.3184700947256
32.80132007598877	79.10792222069907	-59.03144587796317	121.6870867701414	-114.9089980145525	-822.5074045625406
32.8053731918335	78.96198011608767	-59.39741650642823	122.0169453942339	-114.6148391795337	-824.5977678224538
32.81133985519409	78.84754290474517	-59.78353656272639	122.3041052932245	-114.3027331220265	-826.5891898586874
32.81635499000549	78.76058412598499	-60.18488488027899	122.5533429954502	-113.9741897063492	-828.4865257844931
32.82138299942017	78.69752730190099	-60.59644120489555	122.7534595582233	-113.6225568264084	-830.2933960561891
32.82538318634033	78.65497407856229	-61.01689346485826	122.9033323855993	-113.2512538850139	-832.0240891420304
32.83434700965881	78.63032944356088	-61.44378470195891	123.0143962517063	-112.8693814273373	-833.6848632404694
32.83938908576965	78.62138499941088	-61.87550158485384	123.0952886240868	-112.481200472077	-835.2821908557373
32.84535098075867	78.62632205639345	-62.31258470853876	123.1520911815572	-112.0868559108858	-836.8290244264415
32.85034894943237	78.6437015346868	-62.75351035903231	123.1862062170315	-111.6877064006348	-838.3282431150933
32.86135792732239	78.67245114107828	-63.19981429613006	123.204692963946	-111.2823556937274	-839.7909829601526
32.86734509468079	78.71138896809697	-63.64865873028497	123.1754163769928	-110.8717157157828	-841.2141617206114
32.87440395355225	78.75988634167274	-64.10160616625596	123.1622474545262	-110.4606346493102	-842.6070111428045
32.8894419670105	78.81727124831718	-64.55864300668503	123.1562906413519	-110.0296906937069	-843.9731749270004
32.89535999298096	78.88310875282289	-65.01991432473204	123.1061319769198	-109.591710232606	-845.3161461819102
32.90136790275574	78.95692616152174	-65.48594018034404	123.0308932224152	-109.1759133041623	-846.6418849655046
32.9053909778595	79.03856805902451	-65.95715419539255	122.9438666665736	-108.7463659001318	-847.9508936188836
32.90935277938843	79.12758990432171	-66.43291469840122	122.8346955455243	-108.316608768949	-849.2442312694692
32.91333484649658	79.22372587234953	-66.91311655257336	122.6946002604809	-107.7113608493769	-850.5268113325799
32.91734504699707	79.32730899612135	-67.40032639431331	122.6219050300782	-107.3951446204142	-851.8023602221181
32.92239093780518	79.43793279556952	-67.89320758282661	122.4489887473407	-106.8193224285755	-853.0705269800468
32.9273419380188	79.5551366827918	-68.39034391107833	122.2712185334414	-106.4920919492219	-854.3298848407119
32.93235492706299	79.67942708803919	-68.8943303965609	121.9710458749706	-105.9006106147645	-855.5850132758327
32.9373459815979	79.80870597628419	-69.39729530674845	122.0023184734468	-105.5567895668462	-856.8195115980444
32.94334983825684	79.94818068197381	-69.91945784451627	121.6763827755402	-105.0000707193147	-858.0841822832861
32.94934487342834	80.09249117338027	-70.44045098521374	121.5911779612575	-104.5787067592748	-859.329722049388
32.95539283752441	80.24348931211711	-70.9673855316199	121.3188969643891	-104.0451560458318	-860.5732091291845
32.96034908294678	80.40110355487687	-71.50017731410826	121.1998075653233	-103.5805591193374	-861.8168712387456
32.968346118927	80.56554713725887	-72.03943249357107	120.9657321542717	-103.0714815773749	-863.060952539199
32.9744029045105	80.73576455773295	-72.58174291400837	120.7202022866282	-102.55644306716	-864.2996993665374
32.97933888435364	80.91335588362961	-73.13224138925155	120.5131077831775	-102.0164901131136	-865.5446033351328
32.98434400558472	81.09760559497899	-73.68847921256925	120.2188349326868	-101.5031130274735	-866.790836400908
32.98840498924255	81.28701707841908	-74.24584685921039	119.9832625672148	-100.9661125086808	-868.0285895160746
32.99935984611511	81.48304254787166	-74.80904263332013	119.712553039863	-100.4205102606167	-869.2694582613289
33.00436902046204	81.68533278869533	-75.37596145661932	119.25764377467	-99.78991140310524	-870.5082045413329
33.00935101509094	81.89321265260432	-75.94661964242607	119.1380702828647	-99.3165580059901	-871.7475374878092
33.0143449306488	82.10711728432068	-76.52030053186026	118.770755374565	-98.77821356088889	-872.9850390260891
33.02144503593445	82.32672573354652	-77.09680343614818	118.4884839190968	-98.23112273880437	-874.2207204889723
33.02638506889343	82.55215913606632	-77.67630308700004	118.2023216243985	-97.65291739964675	-875.4556064283041
33.03335213661194	82.78488153146071	-78.26240344853119	117.7939738665134	-97.08308212802484	-876.6984198987641
33.04139089584351	83.02218359871297	-78.84801086198677	117.4881274198072	-96.52860609268242	-877.9365637870801
33.04835081100464	83.26427483330693	-79.43394068252998	117.1922303391622	-95.90467183883146	-879.1638737482366
33.05338215827942	83.51287207817001	-80.02402624501177	116.8396575892522	-95.37006509720806	-880.3988934921628
33.05739593505859	83.76516791160138	-80.61164636089403	116.4673252079501	-94.81097912940514	-881.6224015451012
33.06338286399841	84.02819637996575	-81.21274380924443	116.1117753433906	-94.20107812007002	-882.8763555831296
33.06935095787048	84.29235898210753	-81.80546478084827	115.7401734064642	-93.62226433107119	-884.1011123465443
33.07339692115784	84.56223027591655	-82.39994746485377	115.2947666974814	-93.03987918636456	-885.3295706892632
33.07735586166382	84.83787374026123	-82.99630252374982	114.9647701969485	-92.4625079067887	-886.5596742566871
33.08435201644897	85.1197385038048	-83.59523496897215	114.5760999434937	-91.86569119834782	-887.7941364771848
33.09437608718872	85.40625875247133	-84.19332082830608	114.1668593259172	-91.27851482155114	-889.0254875937869
33.09836411476135	85.69672020463658	-84.78898154144832	113.7703471090834	-90.68553459423605	-890.2474054189462
33.10538411140442	85.99141516464667	-85.38277114277753	113.3565387140313	-90.09673787373113	-891.4675693804519
33.11135196685791	86.29589632901468	-85.98571955131557	112.9554428694254	-89.48195090558778	-892.7027879894861
33.1173460483551	86.60100133759991	-86.57962433735817	112.534038993444	-88.8342593574134	-893.9254858057127
33.12237000465393	86.90935831291696	-87.16947951958569	112.1078610689313	-88.3100234542004	-895.1339939207445
33.12734889984131	87.22711790535989	-87.76697958857547	111.6140532808805	-87.68937857992091	-896.3644307222074
33.13235092163086	87.54844836857696	-88.36078160850734	111.2159682461721	-87.11119748835848	-897.5861611768685
33.13940191268921	87.87214914598886	-88.94886064711029	110.8222568936813	-86.49157843802834	-898.7999047971023
33.1463520526886	88.21761735363667	-89.56527159191452	110.2074602090315	-85.79743289723504	-900.0745303316603
33.15035009384155	88.53619314686257	-90.1245390331308	109.9338077839465	-85.32406072198553	-901.2310389481269
33.16535997390747	88.8740506512391	-90.70757922871643	109.4543804511986	-84.58811969486837	-902.4387737109697
